<?xml version="1.0" encoding="iso-8859-1"?>
<!-- Generator: Adobe Illustrator 18.0.0, SVG Export Plug-In . SVG Version: 6.00 Build 0)  -->
<!DOCTYPE svg PUBLIC "-//W3C//DTD SVG 1.1//EN" "http://www.w3.org/Graphics/SVG/1.1/DTD/svg11.dtd">
<svg version="1.1" id="Capa_1" xmlns="http://www.w3.org/2000/svg" xmlns:xlink="http://www.w3.org/1999/xlink" x="0px" y="0px"
	 viewBox="0 0 218.1 218.1" style="enable-background:new 0 0 218.1 218.1;" xml:space="preserve">
<path d="M207.511,114.183l-34.825-34.825L218.1,33.944l-9.9-24.041l-24.041-9.899l-45.414,45.414L103.92,10.593L64.68,49.832
	l103.592,103.59L207.511,114.183z M184.276,22.983c2.994-2.994,7.849-2.993,10.843,0.001c2.994,2.994,2.994,7.849,0,10.843
	c-2.994,2.994-7.85,2.994-10.844,0C181.281,30.833,181.282,25.978,184.276,22.983z M6.8,138.976l-6.8-6.8l62.933-62.932
	l85.921,85.92L85.92,218.096L39.3,171.476l10.993-20.271l-20.271,10.994l-16.674-16.674l7.763-14.31L6.8,138.976z"/>
<g>
</g>
<g>
</g>
<g>
</g>
<g>
</g>
<g>
</g>
<g>
</g>
<g>
</g>
<g>
</g>
<g>
</g>
<g>
</g>
<g>
</g>
<g>
</g>
<g>
</g>
<g>
</g>
<g>
</g>
</svg>
